<svg width="14" height="14" viewBox="0 0 14 14" fill="none" xmlns="http://www.w3.org/2000/svg">
<path d="M14 0.777754V10.8886C14 11.0948 13.9181 11.2927 13.7722 11.4385C13.6263 11.5844 13.4285 11.6663 13.2222 11.6663C13.016 11.6663 12.8181 11.5844 12.6723 11.4385C12.5264 11.2927 12.4445 11.0948 12.4445 10.8886V2.65506L1.32845 13.7721C1.18251 13.918 0.984574 14 0.778186 14C0.571798 14 0.373864 13.918 0.227925 13.7721C0.0819872 13.6261 0 13.4282 0 13.2218C0 13.0154 0.0819872 12.8175 0.227925 12.6716L11.3449 1.55551H3.11145C2.90517 1.55551 2.70735 1.47357 2.56149 1.32771C2.41564 1.18185 2.33369 0.984027 2.33369 0.777754C2.33369 0.571481 2.41564 0.373656 2.56149 0.227799C2.70735 0.0819418 2.90517 0 3.11145 0H13.2222C13.4285 0 13.6263 0.0819418 13.7722 0.227799C13.9181 0.373656 14 0.571481 14 0.777754Z" fill="#2B2A34"/>
</svg>
