<svg width="34" height="34" viewBox="0 0 34 34" fill="none" xmlns="http://www.w3.org/2000/svg">
<rect width="34" height="34" rx="17" fill="#E9E9E9"/>
<path d="M24 10.7778V20.8886C24 21.0948 23.9181 21.2927 23.7722 21.4385C23.6263 21.5844 23.4285 21.6663 23.2222 21.6663C23.016 21.6663 22.8181 21.5844 22.6723 21.4385C22.5264 21.2927 22.4445 21.0948 22.4445 20.8886V12.6551L11.3284 23.7721C11.1825 23.918 10.9846 24 10.7782 24C10.5718 24 10.3739 23.918 10.2279 23.7721C10.082 23.6261 10 23.4282 10 23.2218C10 23.0154 10.082 22.8175 10.2279 22.6716L21.3449 11.5555H13.1114C12.9052 11.5555 12.7073 11.4736 12.5615 11.3277C12.4156 11.1819 12.3337 10.984 12.3337 10.7778C12.3337 10.5715 12.4156 10.3737 12.5615 10.2278C12.7073 10.0819 12.9052 10 13.1114 10H23.2222C23.4285 10 23.6263 10.0819 23.7722 10.2278C23.9181 10.3737 24 10.5715 24 10.7778Z" fill="#2B2A34"/>
</svg>
