<svg width="18" height="18" viewBox="0 0 18 18" fill="none" xmlns="http://www.w3.org/2000/svg">
<path d="M16.8754 6.2046C16.8472 7.18381 16.4445 8.11492 15.7504 8.80616L13.307 11.2509C12.9512 11.6087 12.5279 11.8924 12.0616 12.0855C11.5954 12.2786 11.0955 12.3773 10.5909 12.3759H10.5874C10.0741 12.3756 9.56612 12.2723 9.09342 12.0724C8.62073 11.8724 8.19291 11.5797 7.83523 11.2116C7.47755 10.8435 7.19727 10.4075 7.01094 9.92921C6.82462 9.45097 6.73603 8.94023 6.7504 8.42718C6.7546 8.278 6.81788 8.13659 6.92634 8.03407C7.0348 7.93154 7.17954 7.87631 7.32872 7.8805C7.47791 7.8847 7.61931 7.94798 7.72184 8.05644C7.82436 8.1649 7.8796 8.30964 7.8754 8.45882C7.86516 8.82158 7.92773 9.18272 8.05943 9.52088C8.19112 9.85905 8.38927 10.1674 8.64215 10.4277C8.89503 10.688 9.19752 10.8949 9.53175 11.0363C9.86597 11.1777 10.2252 11.2507 10.5881 11.2509C10.9448 11.2518 11.2982 11.182 11.6278 11.0455C11.9574 10.909 12.2566 10.7086 12.5083 10.4557L14.9516 8.01234C15.4558 7.50187 15.7374 6.8127 15.7352 6.09527C15.733 5.37785 15.447 4.69045 14.9397 4.18315C14.4324 3.67585 13.745 3.38986 13.0275 3.38761C12.3101 3.38537 11.6209 3.66705 11.1105 4.17116L10.337 4.9446C10.2307 5.04564 10.0891 5.10113 9.94241 5.09926C9.79573 5.09738 9.65559 5.03828 9.55186 4.93455C9.44813 4.83082 9.38903 4.69068 9.38715 4.544C9.38528 4.39732 9.44077 4.25572 9.54181 4.14937L10.3152 3.37593C10.6721 3.01897 11.0957 2.73581 11.562 2.54262C12.0283 2.34943 12.5281 2.25 13.0328 2.25C13.5375 2.25 14.0373 2.34943 14.5036 2.54262C14.9699 2.73581 15.3936 3.01897 15.7504 3.37593C16.12 3.74645 16.4103 4.1883 16.6037 4.67459C16.7971 5.16089 16.8896 5.68145 16.8754 6.2046ZM7.66446 13.0551L6.89103 13.8286C6.63876 14.0825 6.33853 14.2838 6.00779 14.4207C5.67706 14.5576 5.32241 14.6273 4.96446 14.6259C4.42749 14.6255 3.90269 14.4659 3.45638 14.1673C3.01006 13.8688 2.66226 13.4446 2.45692 12.9484C2.25158 12.4523 2.19791 11.9064 2.30269 11.3797C2.40748 10.8531 2.66601 10.3693 3.04564 9.98952L5.48478 7.54616C5.86895 7.15996 6.36038 6.89819 6.89524 6.79487C7.43009 6.69154 7.98366 6.75142 8.48405 6.96674C8.98443 7.18206 9.40851 7.54286 9.70121 8.00229C9.99391 8.46171 10.1417 8.99854 10.1254 9.54304C10.1212 9.69222 10.1764 9.83696 10.279 9.94542C10.3815 10.0539 10.5229 10.1172 10.6721 10.1214C10.8213 10.1256 10.966 10.0703 11.0745 9.96779C11.1829 9.86527 11.2462 9.72386 11.2504 9.57468C11.2639 9.05235 11.1712 8.53272 10.9778 8.04732C10.7844 7.56192 10.4944 7.12087 10.1254 6.75093C9.40483 6.03067 8.4277 5.62605 7.40888 5.62605C6.39005 5.62605 5.41293 6.03067 4.69235 6.75093L2.2504 9.19429C1.71338 9.7311 1.34753 10.415 1.1991 11.1597C1.05066 11.9044 1.1263 12.6763 1.41646 13.378C1.70662 14.0797 2.19827 14.6796 2.82928 15.102C3.46029 15.5244 4.20234 15.7502 4.96165 15.7509C5.4664 15.7524 5.96643 15.6537 6.43279 15.4606C6.89914 15.2675 7.32256 14.9838 7.67853 14.6259L8.45196 13.8525C8.54299 13.7453 8.59055 13.6078 8.58526 13.4673C8.57996 13.3267 8.5222 13.1932 8.42337 13.0932C8.32453 12.9931 8.19178 12.9337 8.05131 12.9267C7.91083 12.9196 7.77281 12.9655 7.66446 13.0551Z" fill="#2B2A34"/>
</svg>
