<svg width="35" height="35" viewBox="0 0 35 35" fill="none" xmlns="http://www.w3.org/2000/svg">
<path d="M23.2411 12.7411L18.9181 17.0625L23.2411 21.3839C23.363 21.5058 23.4598 21.6506 23.5258 21.8099C23.5918 21.9693 23.6257 22.14 23.6257 22.3125C23.6257 22.485 23.5918 22.6557 23.5258 22.8151C23.4598 22.9744 23.363 23.1192 23.2411 23.2411C23.1192 23.363 22.9744 23.4598 22.8151 23.5258C22.6557 23.5918 22.485 23.6257 22.3125 23.6257C22.1401 23.6257 21.9693 23.5918 21.81 23.5258C21.6506 23.4598 21.5059 23.363 21.3839 23.2411L17.0625 18.918L12.7411 23.2411C12.6192 23.363 12.4744 23.4598 12.3151 23.5258C12.1557 23.5918 11.985 23.6257 11.8125 23.6257C11.6401 23.6257 11.4693 23.5918 11.31 23.5258C11.1506 23.4598 11.0059 23.363 10.8839 23.2411C10.762 23.1192 10.6652 22.9744 10.5992 22.8151C10.5332 22.6557 10.4993 22.485 10.4993 22.3125C10.4993 22.14 10.5332 21.9693 10.5992 21.8099C10.6652 21.6506 10.762 21.5058 10.8839 21.3839L15.207 17.0625L10.8839 12.7411C10.6376 12.4948 10.4993 12.1608 10.4993 11.8125C10.4993 11.4642 10.6376 11.1302 10.8839 10.8839C11.1302 10.6376 11.4642 10.4993 11.8125 10.4993C12.1608 10.4993 12.4948 10.6376 12.7411 10.8839L17.0625 15.207L21.3839 10.8839C21.5059 10.762 21.6506 10.6652 21.81 10.5992C21.9693 10.5332 22.1401 10.4993 22.3125 10.4993C22.485 10.4993 22.6557 10.5332 22.8151 10.5992C22.9744 10.6652 23.1192 10.762 23.2411 10.8839C23.363 11.0059 23.4598 11.1506 23.5258 11.3099C23.5918 11.4693 23.6257 11.64 23.6257 11.8125C23.6257 11.985 23.5918 12.1557 23.5258 12.3151C23.4598 12.4744 23.363 12.6191 23.2411 12.7411ZM34.125 17.0625C34.125 20.4371 33.1243 23.736 31.2495 26.5419C29.3746 29.3478 26.7098 31.5348 23.592 32.8262C20.4743 34.1176 17.0436 34.4555 13.7338 33.7971C10.424 33.1388 7.38373 31.5137 4.9975 29.1275C2.61126 26.7413 0.986219 23.701 0.327859 20.3912C-0.330501 17.0814 0.00739292 13.6507 1.29881 10.533C2.59023 7.4152 4.77718 4.7504 7.58309 2.87555C10.389 1.0007 13.6879 0 17.0625 0C21.5863 0.0047772 25.9234 1.80396 29.1222 5.00277C32.321 8.20157 34.1202 12.5387 34.125 17.0625ZM31.5 17.0625C31.5 14.207 30.6533 11.4157 29.0669 9.04145C27.4804 6.66722 25.2256 4.81673 22.5875 3.72399C19.9494 2.63125 17.0465 2.34534 14.2459 2.90241C11.4453 3.45949 8.87277 4.83453 6.85365 6.85365C4.83453 8.87277 3.45949 11.4453 2.90242 14.2459C2.34535 17.0465 2.63126 19.9494 3.724 22.5875C4.81674 25.2256 6.66723 27.4804 9.04146 29.0668C11.4157 30.6533 14.207 31.5 17.0625 31.5C20.8902 31.4957 24.5599 29.9732 27.2666 27.2666C29.9732 24.5599 31.4957 20.8902 31.5 17.0625Z" fill="#2B2A34"/>
</svg>
