<svg width="36" height="36" viewBox="0 0 36 36" fill="none" xmlns="http://www.w3.org/2000/svg">
<rect width="36" height="36" rx="8" fill="#F5F5F5"/>
<path d="M18 9C21.5951 9 23.3928 8.9998 24.6875 9.85645C25.2657 10.239 25.761 10.7343 26.1436 11.3125C27.0002 12.6072 27 14.4049 27 18C27 21.5951 27.0002 23.3928 26.1436 24.6875C25.761 25.2657 25.2657 25.761 24.6875 26.1436C23.3928 27.0002 21.5951 27 18 27C14.4049 27 12.6072 27.0002 11.3125 26.1436C10.7343 25.761 10.239 25.2657 9.85645 24.6875C8.9998 23.3928 9 21.5951 9 18C9 14.4049 8.9998 12.6072 9.85645 11.3125C10.239 10.7343 10.7343 10.239 11.3125 9.85645C12.6072 8.9998 14.4049 9 18 9ZM18.0029 13.3398C15.4298 13.34 13.3439 15.4259 13.3438 17.999C13.3438 20.5723 15.4297 22.6581 18.0029 22.6582C20.5763 22.6582 22.6621 20.5723 22.6621 17.999C22.662 15.4258 20.5762 13.3398 18.0029 13.3398ZM18.0029 14.916C19.7055 14.916 21.0858 16.2964 21.0859 17.999C21.0859 19.7017 19.7056 21.082 18.0029 21.082C16.3003 21.0819 14.9199 19.7016 14.9199 17.999C14.92 16.2965 16.3004 14.9161 18.0029 14.916ZM22.8447 12.0117C22.2401 12.0118 21.7501 12.5019 21.75 13.1064C21.75 13.7111 22.2401 14.2011 22.8447 14.2012C23.4494 14.2012 23.9395 13.7111 23.9395 13.1064C23.9394 12.5018 23.4493 12.0117 22.8447 12.0117Z" fill="#4D77FF"/>
</svg>
