<svg width="36" height="36" viewBox="0 0 36 36" fill="none" xmlns="http://www.w3.org/2000/svg">
<rect width="36" height="36" rx="8" fill="#F5F5F5"/>
<path d="M9 11.421C9 10.8438 9.20271 10.3676 9.60811 9.99246C10.0135 9.61727 10.5405 9.42969 11.1892 9.42969C11.8263 9.42969 12.3417 9.61438 12.7355 9.9838C13.1409 10.3648 13.3436 10.8611 13.3436 11.473C13.3436 12.0271 13.1467 12.4888 12.7529 12.8583C12.3475 13.2392 11.8147 13.4297 11.1544 13.4297H11.1371C10.5 13.4297 9.98456 13.2392 9.59073 12.8583C9.19691 12.4773 9 11.9982 9 11.421ZM9.22587 26.5725V15.0054H13.083V26.5725H9.22587ZM15.2201 26.5725H19.0772V20.1137C19.0772 19.7096 19.1236 19.3979 19.2162 19.1786C19.3784 18.7861 19.6245 18.4542 19.9546 18.1829C20.2847 17.9116 20.6988 17.776 21.1969 17.776C22.4942 17.776 23.1429 18.6476 23.1429 20.3907V26.5725H27V19.9405C27 18.232 26.5946 16.9362 25.7838 16.0531C24.973 15.1699 23.9015 14.7284 22.5695 14.7284C21.0753 14.7284 19.9112 15.3691 19.0772 16.6505V16.6851H19.0598L19.0772 16.6505V15.0054H15.2201C15.2432 15.3748 15.2548 16.5235 15.2548 18.4513C15.2548 20.3792 15.2432 23.0862 15.2201 26.5725Z" fill="#4D77FF"/>
</svg>
