<svg width="178" height="41" viewBox="0 0 178 41" fill="none" xmlns="http://www.w3.org/2000/svg">
<path d="M0 33.1095V5.06836H10.9307C13.8344 5.06836 16.0541 5.66498 17.5897 6.85822C19.1532 8.05146 19.935 9.73525 19.935 11.9096C19.935 12.8642 19.7256 13.7525 19.3068 14.5745C18.888 15.3965 18.2877 16.0727 17.5059 16.603C16.7241 17.1333 15.7609 17.5046 14.6162 17.7167V17.7962C16.068 17.9288 17.3384 18.3 18.4273 18.9099C19.5441 19.5198 20.4096 20.3418 21.0238 21.3759C21.6381 22.4101 21.9452 23.6166 21.9452 24.9954C21.9452 27.541 20.9959 29.5297 19.0974 30.9616C17.2267 32.3935 14.6022 33.1095 11.2239 33.1095H0ZM4.6487 31.6776L2.55469 29.6888H10.9726C13.0108 29.6888 14.5464 29.2778 15.5794 28.4558C16.6125 27.6338 17.129 26.4141 17.129 24.7966C17.129 23.1525 16.5985 21.9195 15.5375 21.0975C14.4766 20.2755 12.8991 19.8645 10.8051 19.8645H3.76921V16.6428H10.135C11.7544 16.6428 13.0108 16.2848 13.9042 15.5689C14.7977 14.8264 15.2444 13.8055 15.2444 12.5062C15.2444 11.2069 14.8116 10.1993 13.9461 9.48334C13.1085 8.7674 11.9219 8.40943 10.3863 8.40943H2.55469L4.6487 6.4207V31.6776Z" fill="#2B2A34"/>
<path d="M33.2022 32.4128L28.0092 24.1098L33.0849 17.0684H36.6349L30.4444 25.254V22.6722L36.723 32.4128H33.2022ZM22.9922 32.4128V17.0684H26.1315V32.4128H22.9922ZM24.3418 25.5767V22.8482H29.6229V25.5767H24.3418Z" fill="#2B2A34"/>
<path d="M169.096 15.8664L170.852 10.9726L171.291 10.1606L174.517 0H176.975L171.467 15.8664H169.096ZM169.908 11.4335L165.805 0H168.241L171.532 9.87534H172.213L172.147 11.4335H169.908Z" fill="#4D77FF"/>
<path d="M154.836 16.1297V0.263343H157.03V2.19452H157.096C157.316 1.72636 157.616 1.33134 157.996 1.00948C158.376 0.672986 158.808 0.424274 159.291 0.263343C159.788 0.087781 160.3 0 160.827 0C161.807 0 162.67 0.241397 163.417 0.724192C164.177 1.20699 164.77 1.90192 165.194 2.80899C165.618 3.70143 165.83 4.76942 165.83 6.01299C165.83 7.24192 165.618 8.30992 165.194 9.21699C164.77 10.1094 164.185 10.797 163.438 11.2798C162.692 11.7626 161.829 12.004 160.849 12.004C160.337 12.004 159.847 11.9162 159.379 11.7407C158.925 11.5798 158.508 11.3384 158.128 11.0165C157.762 10.6946 157.462 10.3069 157.228 9.8534H157.184V16.1297H154.836ZM160.234 10.0728C160.878 10.0728 161.434 9.91923 161.902 9.612C162.37 9.29014 162.736 8.82929 163 8.22945C163.278 7.61499 163.417 6.87616 163.417 6.01299C163.417 5.13518 163.278 4.39636 163 3.79652C162.736 3.19668 162.37 2.73584 161.902 2.41397C161.434 2.09211 160.878 1.93118 160.234 1.93118C159.605 1.93118 159.049 2.09211 158.567 2.41397C158.084 2.73584 157.703 3.19668 157.425 3.79652C157.162 4.39636 157.03 5.13518 157.03 6.01299C157.03 6.86153 157.169 7.59304 157.447 8.20751C157.725 8.80734 158.106 9.26819 158.589 9.59006C159.071 9.91192 159.62 10.0728 160.234 10.0728Z" fill="#4D77FF"/>
<path d="M86.7243 34.4005C85.1389 34.4005 83.7742 34.0469 82.6303 33.3396C81.4864 32.6115 80.6034 31.6026 79.9812 30.3128C79.3792 29.0023 79.0781 27.4837 79.0781 25.7571C79.0781 24.0929 79.3992 22.6263 80.0414 21.3573C80.7037 20.0884 81.5968 19.1002 82.7206 18.393C83.8645 17.6857 85.1489 17.332 86.5738 17.332C88.0188 17.332 89.2731 17.6441 90.3367 18.2681C91.4204 18.8922 92.2533 19.7763 92.8353 20.9205C93.4173 22.0646 93.7083 23.4168 93.7083 24.977C93.7083 25.289 93.6982 25.5906 93.6782 25.8819C93.6782 26.1731 93.6681 26.4227 93.6481 26.6308H80.794V24.2905H91.601L90.5775 24.7585C90.5976 23.6976 90.4471 22.8031 90.126 22.075C89.8049 21.3469 89.3333 20.7957 88.7111 20.4212C88.1091 20.0468 87.3766 19.8595 86.5136 19.8595C85.7109 19.8595 84.9884 20.0468 84.3462 20.4212C83.724 20.7957 83.2223 21.3781 82.841 22.1686C82.4798 22.9383 82.2992 23.9368 82.2992 25.1642V26.1315C82.2992 27.8581 82.6805 29.2207 83.4431 30.2192C84.2057 31.1969 85.3496 31.6858 86.8748 31.6858C87.798 31.6858 88.5907 31.4882 89.253 31.0929C89.9153 30.6977 90.4571 30.084 90.8786 29.2519L93.3771 30.5937C92.9958 31.4258 92.4941 32.133 91.872 32.7155C91.2498 33.2772 90.5073 33.7036 89.6443 33.9949C88.7814 34.2653 87.808 34.4005 86.7243 34.4005Z" fill="#2B2A34"/>
<path d="M102.735 34.4005C101.241 34.4005 99.9023 34.0677 98.7195 33.402C97.5574 32.7155 96.6339 31.7378 95.9491 30.4688C95.2643 29.1791 94.9219 27.6397 94.9219 25.8507C94.9219 24.0617 95.2643 22.5327 95.9491 21.2637C96.6339 19.9948 97.5574 19.0274 98.7195 18.3618C99.9023 17.6753 101.23 17.332 102.704 17.332C104.447 17.332 105.889 17.7065 107.031 18.4554C108.172 19.1835 109.012 20.3172 109.552 21.8566L106.595 22.8863C106.201 21.9086 105.682 21.2013 105.038 20.7645C104.395 20.3068 103.607 20.078 102.673 20.078C101.905 20.078 101.189 20.286 100.525 20.702C99.8816 21.0973 99.3524 21.7214 98.9374 22.5743C98.5223 23.4272 98.3148 24.5193 98.3148 25.8507C98.3148 27.182 98.5223 28.2846 98.9374 29.1583C99.3524 30.0112 99.892 30.6457 100.556 31.0617C101.22 31.457 101.936 31.6546 102.704 31.6546C103.658 31.6546 104.447 31.4258 105.07 30.9681C105.713 30.5104 106.232 29.7824 106.626 28.7838L109.552 29.8448C109.033 31.3425 108.203 32.4763 107.062 33.246C105.92 34.0157 104.478 34.4005 102.735 34.4005Z" fill="#2B2A34"/>
<path d="M112.595 34.2892C112.235 34.2892 111.898 34.257 111.583 34.1926C111.291 34.1496 111.021 34.0852 110.773 33.9994V31.1009C110.953 31.1653 111.133 31.219 111.313 31.262C111.516 31.3049 111.718 31.3264 111.92 31.3264C112.617 31.3264 113.168 31.058 113.573 30.5212C113.978 29.963 114.225 28.9754 114.315 27.5584C114.338 27.0646 114.36 26.5601 114.383 26.0448C114.428 25.5295 114.461 25.0142 114.484 24.499C114.506 23.9622 114.529 23.3933 114.551 22.7921L114.788 17.2207H127.842V34.0638H124.199V18.1546L125.379 20.1513H115.867L117.992 18.1546L117.79 23.0498C117.745 23.93 117.7 24.7459 117.655 25.4973C117.632 26.2488 117.599 27.0431 117.554 27.8805C117.464 29.4478 117.228 30.7037 116.845 31.6484C116.485 32.5931 115.957 33.2694 115.26 33.6773C114.585 34.0852 113.697 34.2892 112.595 34.2892Z" fill="#2B2A34"/>
<path d="M138.089 34.4005C136.553 34.4005 135.181 34.0573 133.973 33.3708C132.785 32.6635 131.853 31.6754 131.178 30.4064C130.502 29.1375 130.164 27.6293 130.164 25.8819C130.164 24.1345 130.502 22.6263 131.178 21.3573C131.874 20.0676 132.816 19.0794 134.004 18.393C135.212 17.6857 136.573 17.332 138.089 17.332C139.604 17.332 140.956 17.6857 142.143 18.393C143.351 19.0794 144.293 20.0676 144.969 21.3573C145.665 22.6263 146.013 24.1345 146.013 25.8819C146.013 27.6293 145.665 29.1375 144.969 30.4064C144.293 31.6754 143.351 32.6635 142.143 33.3708C140.956 34.0573 139.604 34.4005 138.089 34.4005ZM138.089 31.6546C138.928 31.6546 139.686 31.4466 140.362 31.0305C141.058 30.6145 141.601 29.98 141.99 29.1271C142.399 28.2534 142.604 27.1716 142.604 25.8819C142.604 24.5713 142.399 23.4896 141.99 22.6367C141.601 21.763 141.058 21.1181 140.362 20.702C139.686 20.286 138.928 20.078 138.089 20.078C137.229 20.078 136.461 20.286 135.785 20.702C135.109 21.1181 134.567 21.763 134.157 22.6367C133.748 23.4896 133.543 24.5713 133.543 25.8819C133.543 27.1924 133.737 28.2742 134.126 29.1271C134.536 29.98 135.079 30.6145 135.754 31.0305C136.451 31.4466 137.229 31.6546 138.089 31.6546Z" fill="#2B2A34"/>
<path d="M38.8438 17.0684H54.6931L42.5013 21.9451V40.2327H38.8438V17.0684Z" fill="#2B2A34"/>
<rect x="40.6725" y="18.8971" width="35.3562" height="13.411" rx="6.70548" stroke="#2B2A34" stroke-width="3.65753"/>
<rect x="147.523" y="10.9727" width="4.87671" height="4.87671" fill="#4D77FF"/>
</svg>
