<svg width="122" height="28" viewBox="0 0 122 28" fill="none" xmlns="http://www.w3.org/2000/svg">
<path d="M0.273438 22.9555V3.73633H7.76528C9.75545 3.73633 11.2768 4.14525 12.3293 4.96308C13.4009 5.78092 13.9367 6.93498 13.9367 8.42526C13.9367 9.07953 13.7932 9.68837 13.5062 10.2518C13.2191 10.8152 12.8077 11.2786 12.2719 11.6421C11.7361 12.0056 11.0759 12.26 10.2913 12.4054V12.4599C11.2864 12.5508 12.1571 12.8052 12.9034 13.2232C13.6688 13.6412 14.262 14.2046 14.683 14.9134C15.104 15.6222 15.3145 16.4492 15.3145 17.3942C15.3145 19.1389 14.6639 20.502 13.3626 21.4834C12.0805 22.4648 10.2817 22.9555 7.96621 22.9555H0.273438ZM3.45962 21.9741L2.0244 20.611H7.79398C9.19093 20.611 10.2434 20.3293 10.9515 19.7659C11.6595 19.2025 12.0135 18.3665 12.0135 17.2579C12.0135 16.1311 11.6499 15.286 10.9228 14.7226C10.1956 14.1592 9.11439 13.8775 7.67917 13.8775H2.85683V11.6693H7.2199C8.3298 11.6693 9.19093 11.424 9.80329 10.9333C10.4157 10.4244 10.7218 9.72472 10.7218 8.83418C10.7218 7.94365 10.4252 7.25303 9.832 6.76233C9.25791 6.27162 8.44462 6.02627 7.39212 6.02627H2.0244L3.45962 4.66321V21.9741Z" fill="white"/>
<path d="M23.0292 22.4779L19.4699 16.7871L22.9487 11.9609H25.3819L21.1389 17.5713V15.8017L25.4422 22.4779H23.0292ZM16.0312 22.4779V11.9609H18.1829V22.4779H16.0312ZM16.9563 17.7925V15.9224H20.5759V17.7925H16.9563Z" fill="white"/>
<path d="M116.17 11.1364L117.374 7.78227L117.674 7.22575L119.885 0.261719H121.57L117.795 11.1364H116.17ZM116.727 8.09813L113.914 0.261719H115.584L117.84 7.03021H118.306L118.261 8.09813H116.727Z" fill="#4D77FF"/>
<path d="M106.398 11.3169V0.442212H107.903V1.76583H107.948C108.098 1.44495 108.304 1.17421 108.564 0.953609C108.825 0.722979 109.121 0.552513 109.452 0.442212C109.793 0.321883 110.144 0.261719 110.505 0.261719C111.176 0.261719 111.768 0.427171 112.28 0.758075C112.801 1.08898 113.207 1.56528 113.498 2.18698C113.789 2.79865 113.934 3.53065 113.934 4.38298C113.934 5.22528 113.789 5.95728 113.498 6.57898C113.207 7.19065 112.806 7.66194 112.295 7.99284C111.783 8.32375 111.192 8.4892 110.52 8.4892C110.169 8.4892 109.833 8.42903 109.512 8.30871C109.201 8.1984 108.915 8.03295 108.655 7.81235C108.404 7.59175 108.198 7.32602 108.038 7.01517H108.008V11.3169H106.398ZM110.099 7.16558C110.54 7.16558 110.921 7.06029 111.242 6.84972C111.563 6.62912 111.813 6.31325 111.994 5.90213C112.184 5.48098 112.28 4.9746 112.28 4.38298C112.28 3.78134 112.184 3.27495 111.994 2.86383C111.813 2.4527 111.563 2.13684 111.242 1.91624C110.921 1.69564 110.54 1.58534 110.099 1.58534C109.667 1.58534 109.286 1.69564 108.955 1.91624C108.625 2.13684 108.364 2.4527 108.173 2.86383C107.993 3.27495 107.903 3.78134 107.903 4.38298C107.903 4.96457 107.998 5.46594 108.188 5.88709C108.379 6.29821 108.64 6.61407 108.97 6.83468C109.301 7.05528 109.677 7.16558 110.099 7.16558Z" fill="#4D77FF"/>
<path d="M59.7172 23.8412C58.6306 23.8412 57.6952 23.5988 56.9112 23.1141C56.1272 22.615 55.5219 21.9235 55.0955 21.0395C54.6829 20.1413 54.4766 19.1004 54.4766 17.917C54.4766 16.7764 54.6966 15.7712 55.1368 14.9015C55.5907 14.0318 56.2028 13.3545 56.9731 12.8697C57.7571 12.385 58.6375 12.1426 59.6141 12.1426C60.6044 12.1426 61.4641 12.3564 62.1931 12.7842C62.9359 13.2119 63.5067 13.8179 63.9056 14.6021C64.3045 15.3863 64.504 16.313 64.504 17.3824C64.504 17.5962 64.4971 17.803 64.4833 18.0026C64.4833 18.2022 64.4764 18.3733 64.4627 18.5159H55.6526V16.9119H63.0597L62.3582 17.2327C62.3719 16.5055 62.2688 15.8924 62.0487 15.3934C61.8286 14.8944 61.5054 14.5165 61.079 14.2599C60.6663 14.0032 60.1643 13.8749 59.5728 13.8749C59.0226 13.8749 58.5274 14.0032 58.0873 14.2599C57.6608 14.5165 57.317 14.9157 57.0556 15.4575C56.808 15.9851 56.6842 16.6695 56.6842 17.5107V18.1737C56.6842 19.3571 56.9456 20.291 57.4683 20.9754C57.991 21.6455 58.775 21.9805 59.8204 21.9805C60.4531 21.9805 60.9964 21.8451 61.4503 21.5742C61.9043 21.3033 62.2756 20.8827 62.5645 20.3124L64.277 21.232C64.0157 21.8023 63.6718 22.2871 63.2454 22.6863C62.819 23.0713 62.31 23.3636 61.7186 23.5632C61.1271 23.7485 60.46 23.8412 59.7172 23.8412Z" fill="white"/>
<path d="M70.6832 23.8412C69.6591 23.8412 68.7417 23.6131 67.931 23.1568C67.1345 22.6863 66.5015 22.0162 66.0322 21.1465C65.5628 20.2625 65.3281 19.2074 65.3281 17.9812C65.3281 16.755 65.5628 15.7071 66.0322 14.8373C66.5015 13.9676 67.1345 13.3046 67.931 12.8483C68.7417 12.3778 69.652 12.1426 70.6618 12.1426C71.8566 12.1426 72.8451 12.3992 73.6274 12.9125C74.4097 13.4115 74.9857 14.1886 75.3555 15.2437L73.3287 15.9494C73.0585 15.2793 72.7029 14.7946 72.262 14.4951C71.821 14.1815 71.2806 14.0246 70.6405 14.0246C70.1143 14.0246 69.6235 14.1672 69.1684 14.4524C68.7275 14.7233 68.3648 15.151 68.0803 15.7356C67.7959 16.3202 67.6536 17.0687 67.6536 17.9812C67.6536 18.8937 67.7959 19.6494 68.0803 20.2482C68.3648 20.8328 68.7346 21.2677 69.1897 21.5528C69.6449 21.8237 70.1356 21.9592 70.6618 21.9592C71.3161 21.9592 71.8566 21.8023 72.2833 21.4887C72.7242 21.175 73.0798 20.6759 73.35 19.9916L75.3555 20.7187C74.9999 21.7453 74.431 22.5224 73.6487 23.0499C72.8665 23.5774 71.8779 23.8412 70.6832 23.8412Z" fill="white"/>
<path d="M77.4438 23.765C77.1972 23.765 76.966 23.743 76.7502 23.6988C76.5498 23.6694 76.3649 23.6252 76.1953 23.5664V21.5798C76.3186 21.624 76.4419 21.6608 76.5652 21.6902C76.7039 21.7196 76.8427 21.7343 76.9814 21.7343C77.4592 21.7343 77.8368 21.5504 78.1143 21.1825C78.3917 20.7999 78.5612 20.123 78.6229 19.1518C78.6383 18.8134 78.6537 18.4675 78.6691 18.1144C78.7 17.7612 78.7231 17.408 78.7385 17.0549C78.7539 16.687 78.7693 16.297 78.7847 15.885L78.9466 12.0664H87.8939V23.6105H85.397V12.7065L86.2062 14.075H79.6864L81.143 12.7065L81.0042 16.0616C80.9734 16.6649 80.9426 17.2241 80.9118 17.7391C80.8963 18.2542 80.8732 18.7986 80.8424 19.3725C80.7807 20.4467 80.6189 21.3076 80.3569 21.9551C80.1103 22.6025 79.7481 23.0661 79.2702 23.3457C78.8079 23.6252 78.199 23.765 77.4438 23.765Z" fill="white"/>
<path d="M94.9159 23.8412C93.8633 23.8412 92.9229 23.606 92.0949 23.1354C91.2808 22.6507 90.6423 21.9734 90.1791 21.1037C89.716 20.234 89.4844 19.2003 89.4844 18.0026C89.4844 16.8049 89.716 15.7712 90.1791 14.9015C90.6563 14.0175 91.3019 13.3402 92.1159 12.8697C92.944 12.385 93.8773 12.1426 94.9159 12.1426C95.9545 12.1426 96.8808 12.385 97.6948 12.8697C98.5229 13.3402 99.1685 14.0175 99.6316 14.9015C100.109 15.7712 100.347 16.8049 100.347 18.0026C100.347 19.2003 100.109 20.234 99.6316 21.1037C99.1685 21.9734 98.5229 22.6507 97.6948 23.1354C96.8808 23.606 95.9545 23.8412 94.9159 23.8412ZM94.9159 21.9592C95.4913 21.9592 96.0106 21.8166 96.4738 21.5314C96.9509 21.2463 97.3229 20.8114 97.5895 20.2268C97.8702 19.628 98.0106 18.8866 98.0106 18.0026C98.0106 17.1043 97.8702 16.3629 97.5895 15.7784C97.3229 15.1795 96.9509 14.7375 96.4738 14.4524C96.0106 14.1672 95.4913 14.0246 94.9159 14.0246C94.3264 14.0246 93.8001 14.1672 93.337 14.4524C92.8738 14.7375 92.5019 15.1795 92.2212 15.7784C91.9405 16.3629 91.8001 17.1043 91.8001 18.0026C91.8001 18.9008 91.9335 19.6422 92.2001 20.2268C92.4808 20.8114 92.8528 21.2463 93.3159 21.5314C93.7931 21.8166 94.3264 21.9592 94.9159 21.9592Z" fill="white"/>
<path d="M26.8984 11.9609H37.7615L29.4053 15.3034V27.8376H26.8984V11.9609Z" fill="white"/>
<rect x="28.1519" y="13.2144" width="24.2329" height="9.19178" rx="4.59589" stroke="white" stroke-width="2.50685"/>
<rect x="101.383" y="7.7832" width="3.34247" height="3.34247" fill="#4D77FF"/>
</svg>
