<svg xmlns="http://www.w3.org/2000/svg" xmlns:xlink="http://www.w3.org/1999/xlink" width="1440" height="636" viewBox="0 0 1440 636" fill="none">
    <path d="M1415 0C1428.81 0 1440 11.1929 1440 25V611C1440 624.807 1428.81 636 1415 636H25C11.1929 636 0 624.807 0 611V25C4.89667e-06 11.1929 11.1929 6.44258e-07 25 0H578.233C588.376 0 597.514 6.12851 601.363 15.5128L615.811 50.7372C619.66 60.1215 628.798 66.25 638.941 66.25H800.781C810.882 66.25 819.99 60.1721 823.867 50.8452L838.597 15.4048C842.474 6.0779 851.582 0 861.682 0H1415Z" fill="red"/>
</svg>
