<svg xmlns="http://www.w3.org/2000/svg" xmlns:xlink="http://www.w3.org/1999/xlink" width="754" height="565" viewBox="0 0 754 565" fill="none">
    <path d="M729 0C742.807 6.31372e-06 754 11.1929 754 25V540C754 553.807 742.807 565 729 565H25C11.1929 565 0 553.807 0 540V25C5.63762e-06 11.1929 11.1929 2.41597e-07 25 0H254.057C263.781 0 272.623 5.63836 276.725 14.4549L286.536 35.5451C290.638 44.3616 299.479 50 309.203 50H444.576C454.253 50 463.062 44.4143 467.189 35.6604L477.24 14.3396C481.367 5.58568 490.175 0 499.853 0H729Z" fill="red"/>
</svg>
