<svg xmlns="http://www.w3.org/2000/svg" xmlns:xlink="http://www.w3.org/1999/xlink" width="390" height="585" viewBox="0 0 390 585" fill="none">
    <path d="M375 0C383.284 5.79831e-06 390 6.71573 390 15V570C390 578.284 383.284 585 375 585H15C6.71573 585 1.05706e-07 578.284 0 570V15C0 6.71573 6.71573 3.01996e-07 15 0H83.2775C93.3981 0 102.52 6.10184 106.384 15.4559L114.268 34.5441C118.132 43.8982 127.254 50 137.375 50H252.435C262.513 50 271.605 43.9489 275.496 34.6525L283.576 15.3475C287.467 6.05111 296.56 0 306.638 0H375Z" fill="red"/>
</svg>
