<svg xmlns="http://www.w3.org/2000/svg" xmlns:xlink="http://www.w3.org/1999/xlink" width="1074" height="565" viewBox="0 0 1074 565" fill="none">
    <path d="M1049 0C1062.81 0 1074 11.1929 1074 25V540C1074 553.807 1062.81 565 1049 565H25C11.1929 565 0 553.807 0 540V25C5.63762e-06 11.1929 11.1929 0 25 0H414.057C423.781 0 432.623 5.63836 436.725 14.4549L446.536 35.5451C450.638 44.3616 459.479 50 469.203 50H604.576C614.253 50 623.062 44.4143 627.189 35.6604L637.24 14.3396C641.367 5.58568 650.175 0 659.853 0H1049Z" fill="red"/>
</svg>
