<svg width="112" height="23" viewBox="0 0 112 23" fill="none" xmlns="http://www.w3.org/2000/svg">
<path d="M12.79 8.35938L12.9141 8.62402L13.2051 8.64551L19.6543 9.12598L15.1787 13.9541L14.9932 14.1543L15.0615 14.4189L16.5176 20.0771L10.582 17.1973L10.3633 17.0908L10.1455 17.1973L4.20801 20.0781L5.66602 14.4189L5.73438 14.1543L5.54883 13.9541L1.07129 9.12598L7.52246 8.64551L7.81348 8.62402L7.9375 8.35938L10.3633 3.17773L12.79 8.35938Z" stroke="url(#paint0_linear_413_10305)"/>
<path d="M35.5166 8.35938L35.6406 8.62402L35.9316 8.64551L42.3809 9.12598L37.9053 13.9541L37.7197 14.1543L37.7881 14.4189L39.2441 20.0771L33.3086 17.1973L33.0898 17.0908L32.8721 17.1973L26.9346 20.0781L28.3926 14.4189L28.4609 14.1543L28.2754 13.9541L23.7979 9.12598L30.249 8.64551L30.54 8.62402L30.6641 8.35938L33.0898 3.17773L35.5166 8.35938Z" stroke="url(#paint1_linear_413_10305)"/>
<path d="M58.2432 8.35938L58.3672 8.62402L58.6582 8.64551L65.1074 9.12598L60.6318 13.9541L60.4463 14.1543L60.5146 14.4189L61.9707 20.0771L56.0352 17.1973L55.8164 17.0908L55.5986 17.1973L49.6611 20.0781L51.1191 14.4189L51.1875 14.1543L51.002 13.9541L46.5244 9.12598L52.9756 8.64551L53.2666 8.62402L53.3906 8.35938L55.8164 3.17773L58.2432 8.35938Z" stroke="url(#paint2_linear_413_10305)"/>
<path d="M80.9697 8.35938L81.0938 8.62402L81.3848 8.64551L87.834 9.12598L83.3584 13.9541L83.1729 14.1543L83.2412 14.4189L84.6973 20.0771L78.7617 17.1973L78.543 17.0908L78.3252 17.1973L72.3877 20.0781L73.8457 14.4189L73.9141 14.1543L73.7285 13.9541L69.251 9.12598L75.7021 8.64551L75.9932 8.62402L76.1172 8.35938L78.543 3.17773L80.9697 8.35938Z" stroke="url(#paint3_linear_413_10305)"/>
<path d="M103.696 8.35938L103.82 8.62402L104.111 8.64551L110.561 9.12598L106.085 13.9541L105.899 14.1543L105.968 14.4189L107.424 20.0771L101.488 17.1973L101.27 17.0908L101.052 17.1973L95.1143 20.0781L96.5723 14.4189L96.6406 14.1543L96.4551 13.9541L91.9775 9.12598L98.4287 8.64551L98.7197 8.62402L98.8438 8.35938L101.27 3.17773L103.696 8.35938Z" stroke="url(#paint4_linear_413_10305)"/>
<defs>
<linearGradient id="paint0_linear_413_10305" x1="20.4607" y1="15.7019" x2="-0.76549" y2="15.39" gradientUnits="userSpaceOnUse">
<stop stop-color="#4D77FF"/>
<stop offset="1" stop-color="#002DC2"/>
</linearGradient>
<linearGradient id="paint1_linear_413_10305" x1="43.1872" y1="15.7019" x2="21.9611" y2="15.39" gradientUnits="userSpaceOnUse">
<stop stop-color="#4D77FF"/>
<stop offset="1" stop-color="#002DC2"/>
</linearGradient>
<linearGradient id="paint2_linear_413_10305" x1="65.9138" y1="15.7019" x2="44.6876" y2="15.39" gradientUnits="userSpaceOnUse">
<stop stop-color="#4D77FF"/>
<stop offset="1" stop-color="#002DC2"/>
</linearGradient>
<linearGradient id="paint3_linear_413_10305" x1="88.6404" y1="15.7019" x2="67.4142" y2="15.39" gradientUnits="userSpaceOnUse">
<stop stop-color="#4D77FF"/>
<stop offset="1" stop-color="#002DC2"/>
</linearGradient>
<linearGradient id="paint4_linear_413_10305" x1="111.367" y1="15.7019" x2="90.1408" y2="15.39" gradientUnits="userSpaceOnUse">
<stop stop-color="#4D77FF"/>
<stop offset="1" stop-color="#002DC2"/>
</linearGradient>
</defs>
</svg>
