<svg width="112" height="23" viewBox="0 0 112 23" fill="none" xmlns="http://www.w3.org/2000/svg">
<path d="M10.3636 17.6471L3.45455 21L5.18182 14.2941L0 8.70588L7.48485 8.14706L10.3636 2L13.2424 8.14706L20.7273 8.70588L15.5455 14.2941L17.2727 21L10.3636 17.6471Z" fill="url(#paint0_linear_413_10305)"/>
<path d="M33.0902 17.6471L26.1811 21L27.9084 14.2941L22.7266 8.70588L30.2114 8.14706L33.0902 2L35.969 8.14706L43.4538 8.70588L38.272 14.2941L39.9993 21L33.0902 17.6471Z" fill="url(#paint1_linear_413_10305)"/>
<path d="M55.8168 17.6471L48.9077 21L50.6349 14.2941L45.4531 8.70588L52.938 8.14706L55.8168 2L58.6955 8.14706L66.1804 8.70588L60.9986 14.2941L62.7259 21L55.8168 17.6471Z" fill="url(#paint2_linear_413_10305)"/>
<path d="M78.5433 17.6471L71.6342 21L73.3615 14.2941L68.1797 8.70588L75.6645 8.14706L78.5433 2L81.4221 8.14706L88.907 8.70588L83.7251 14.2941L85.4524 21L78.5433 17.6471Z" fill="url(#paint3_linear_413_10305)"/>
<path d="M101.27 17.6471L94.3608 21L96.0881 14.2941L90.9062 8.70588L98.3911 8.14706L101.27 2L104.149 8.14706L111.634 8.70588L106.452 14.2941L108.179 21L101.27 17.6471Z" fill="url(#paint4_linear_413_10305)"/>
<defs>
<linearGradient id="paint0_linear_413_10305" x1="20.4607" y1="15.7019" x2="-0.76549" y2="15.39" gradientUnits="userSpaceOnUse">
<stop stop-color="#4D77FF"/>
<stop offset="1" stop-color="#002DC2"/>
</linearGradient>
<linearGradient id="paint1_linear_413_10305" x1="43.1872" y1="15.7019" x2="21.9611" y2="15.39" gradientUnits="userSpaceOnUse">
<stop stop-color="#4D77FF"/>
<stop offset="1" stop-color="#002DC2"/>
</linearGradient>
<linearGradient id="paint2_linear_413_10305" x1="65.9138" y1="15.7019" x2="44.6876" y2="15.39" gradientUnits="userSpaceOnUse">
<stop stop-color="#4D77FF"/>
<stop offset="1" stop-color="#002DC2"/>
</linearGradient>
<linearGradient id="paint3_linear_413_10305" x1="88.6404" y1="15.7019" x2="67.4142" y2="15.39" gradientUnits="userSpaceOnUse">
<stop stop-color="#4D77FF"/>
<stop offset="1" stop-color="#002DC2"/>
</linearGradient>
<linearGradient id="paint4_linear_413_10305" x1="111.367" y1="15.7019" x2="90.1408" y2="15.39" gradientUnits="userSpaceOnUse">
<stop stop-color="#4D77FF"/>
<stop offset="1" stop-color="#002DC2"/>
</linearGradient>
</defs>
</svg>
