<svg width="32" height="32" viewBox="0 0 32 32" fill="none" xmlns="http://www.w3.org/2000/svg">
<rect width="32" height="32" rx="16" fill="#DADADA"/>
<path d="M12.25 13.7036H7.75C7.55109 13.7036 7.36032 13.623 7.21967 13.4794C7.07902 13.3358 7 13.1411 7 12.9381V8.34534C7 8.14232 7.07902 7.94762 7.21967 7.80407C7.36032 7.66052 7.55109 7.57987 7.75 7.57987C7.94891 7.57987 8.13968 7.66052 8.28033 7.80407C8.42098 7.94762 8.5 8.14232 8.5 8.34534V11.0905L9.87156 9.69064C11.5443 7.97486 13.816 7.00709 16.1875 7.00003H16.2372C18.5885 6.99385 20.8476 7.93336 22.525 9.61505C22.662 9.75806 22.7387 9.9501 22.7387 10.1501C22.7387 10.3501 22.662 10.5421 22.5251 10.6851C22.3881 10.8282 22.2018 10.9108 22.0059 10.9154C21.81 10.92 21.6201 10.8461 21.4769 10.7097C20.0787 9.30894 18.1964 8.52628 16.2372 8.53096H16.195C14.2189 8.53717 12.326 9.34347 10.9319 10.7728L9.56031 12.1727H12.25C12.4489 12.1727 12.6397 12.2533 12.7803 12.3969C12.921 12.5404 13 12.7351 13 12.9381C13 13.1411 12.921 13.3358 12.7803 13.4794C12.6397 13.623 12.4489 13.7036 12.25 13.7036ZM24.25 18.2964H19.75C19.5511 18.2964 19.3603 18.377 19.2197 18.5206C19.079 18.6642 19 18.8589 19 19.0619C19 19.2649 19.079 19.4596 19.2197 19.6031C19.3603 19.7467 19.5511 19.8273 19.75 19.8273H22.4397L21.0681 21.2272C19.6742 22.6563 17.7817 23.4626 15.8059 23.469H15.7638C13.8045 23.4737 11.9223 22.6911 10.5241 21.2903C10.4542 21.2174 10.3708 21.1594 10.2787 21.1199C10.1866 21.0803 10.0876 21.0599 9.98769 21.0599C9.88775 21.0599 9.78883 21.0803 9.69672 21.1199C9.60461 21.1595 9.52119 21.2174 9.45134 21.2904C9.38149 21.3633 9.32663 21.4498 9.28998 21.5447C9.25333 21.6396 9.23563 21.741 9.23793 21.843C9.24022 21.9449 9.26245 22.0454 9.30333 22.1385C9.3442 22.2315 9.40289 22.3153 9.47594 22.3849C11.1534 24.0666 13.4124 25.0062 15.7638 25H15.8125C18.1837 24.9927 20.455 24.0249 22.1275 22.3094L23.5 20.9095V23.6547C23.5 23.8577 23.579 24.0524 23.7197 24.1959C23.8603 24.3395 24.0511 24.4201 24.25 24.4201C24.4489 24.4201 24.6397 24.3395 24.7803 24.1959C24.921 24.0524 25 23.8577 25 23.6547V19.0619C25 18.8589 24.921 18.6642 24.7803 18.5206C24.6397 18.377 24.4489 18.2964 24.25 18.2964Z" fill="#2B2A34"/>
</svg>
