<svg width="14" height="14" viewBox="0 0 14 14" fill="none" xmlns="http://www.w3.org/2000/svg">
<path d="M7.63636 5.72727H0.636364C0.467589 5.72727 0.305728 5.79432 0.186387 5.91366C0.0670454 6.033 0 6.19486 0 6.36364V13.3636C0 13.5324 0.0670454 13.6943 0.186387 13.8136C0.305728 13.933 0.467589 14 0.636364 14H7.63636C7.80514 14 7.967 13.933 8.08634 13.8136C8.20568 13.6943 8.27273 13.5324 8.27273 13.3636V6.36364C8.27273 6.19486 8.20568 6.033 8.08634 5.91366C7.967 5.79432 7.80514 5.72727 7.63636 5.72727ZM7 12.7273H1.27273V7H7V12.7273ZM14 11.4545V12.7273C14 13.0648 13.8659 13.3885 13.6272 13.6272C13.3885 13.8659 13.0648 14 12.7273 14H10.8182C10.6494 14 10.4875 13.933 10.3682 13.8136C10.2489 13.6943 10.1818 13.5324 10.1818 13.3636C10.1818 13.1949 10.2489 13.033 10.3682 12.9137C10.4875 12.7943 10.6494 12.7273 10.8182 12.7273H12.7273V11.4545C12.7273 11.2858 12.7943 11.1239 12.9137 11.0046C13.033 10.8852 13.1949 10.8182 13.3636 10.8182C13.5324 10.8182 13.6943 10.8852 13.8136 11.0046C13.933 11.1239 14 11.2858 14 11.4545ZM14 5.72727V8.27273C14 8.4415 13.933 8.60336 13.8136 8.7227C13.6943 8.84205 13.5324 8.90909 13.3636 8.90909C13.1949 8.90909 13.033 8.84205 12.9137 8.7227C12.7943 8.60336 12.7273 8.4415 12.7273 8.27273V5.72727C12.7273 5.5585 12.7943 5.39664 12.9137 5.2773C13.033 5.15795 13.1949 5.09091 13.3636 5.09091C13.5324 5.09091 13.6943 5.15795 13.8136 5.2773C13.933 5.39664 14 5.5585 14 5.72727ZM14 1.27273V2.54545C14 2.71423 13.933 2.87609 13.8136 2.99543C13.6943 3.11477 13.5324 3.18182 13.3636 3.18182C13.1949 3.18182 13.033 3.11477 12.9137 2.99543C12.7943 2.87609 12.7273 2.71423 12.7273 2.54545V1.27273H11.4545C11.2858 1.27273 11.1239 1.20568 11.0046 1.08634C10.8852 0.966999 10.8182 0.805138 10.8182 0.636364C10.8182 0.467589 10.8852 0.305728 11.0046 0.186387C11.1239 0.0670454 11.2858 0 11.4545 0H12.7273C13.0648 0 13.3885 0.13409 13.6272 0.372773C13.8659 0.611456 14 0.935179 14 1.27273ZM8.90909 0.636364C8.90909 0.805138 8.84205 0.966999 8.7227 1.08634C8.60336 1.20568 8.4415 1.27273 8.27273 1.27273H5.72727C5.5585 1.27273 5.39664 1.20568 5.2773 1.08634C5.15795 0.966999 5.09091 0.805138 5.09091 0.636364C5.09091 0.467589 5.15795 0.305728 5.2773 0.186387C5.39664 0.0670454 5.5585 0 5.72727 0H8.27273C8.4415 0 8.60336 0.0670454 8.7227 0.186387C8.84205 0.305728 8.90909 0.467589 8.90909 0.636364ZM0 3.18182V1.27273C0 0.935179 0.13409 0.611456 0.372773 0.372773C0.611456 0.13409 0.935179 0 1.27273 0H2.54545C2.71423 0 2.87609 0.0670454 2.99543 0.186387C3.11477 0.305728 3.18182 0.467589 3.18182 0.636364C3.18182 0.805138 3.11477 0.966999 2.99543 1.08634C2.87609 1.20568 2.71423 1.27273 2.54545 1.27273H1.27273V3.18182C1.27273 3.35059 1.20568 3.51245 1.08634 3.63179C0.966999 3.75114 0.805138 3.81818 0.636364 3.81818C0.467589 3.81818 0.305728 3.75114 0.186387 3.63179C0.0670454 3.51245 0 3.35059 0 3.18182Z" fill="#2B2A34"/>
</svg>
