<svg width="18" height="18" viewBox="0 0 18 18" fill="none" xmlns="http://www.w3.org/2000/svg">
<path d="M15.2108 6.96078L9.58578 12.5858C9.53354 12.6381 9.4715 12.6796 9.40322 12.7079C9.33493 12.7362 9.26173 12.7508 9.18781 12.7508C9.11389 12.7508 9.0407 12.7362 8.97241 12.7079C8.90412 12.6796 8.84208 12.6381 8.78984 12.5858L3.16484 6.96078C3.0593 6.85523 3 6.71208 3 6.56281C3 6.41355 3.0593 6.27039 3.16484 6.16484C3.27039 6.0593 3.41355 6 3.56281 6C3.71208 6 3.85523 6.0593 3.96078 6.16484L9.18781 11.3926L14.4148 6.16484C14.4671 6.11258 14.5292 6.07113 14.5974 6.04284C14.6657 6.01456 14.7389 6 14.8128 6C14.8867 6 14.9599 6.01456 15.0282 6.04284C15.0965 6.07113 15.1585 6.11258 15.2108 6.16484C15.263 6.21711 15.3045 6.27915 15.3328 6.34743C15.3611 6.41572 15.3756 6.4889 15.3756 6.56281C15.3756 6.63672 15.3611 6.70991 15.3328 6.77819C15.3045 6.84648 15.263 6.90852 15.2108 6.96078Z" fill="#2B2A34"/>
</svg>
