<svg width="32" height="30" viewBox="0 0 32 30" fill="none" xmlns="http://www.w3.org/2000/svg">
<g clip-path="url(#clip0_413_15121)">
<path d="M5.23526 1.3805C12.2411 -0.460165 19.6142 -0.460165 26.62 1.3805C28.9719 1.99825 30.7682 3.89524 31.235 6.25419C32.0622 10.4346 32.0622 14.7343 31.235 18.9148C30.7682 21.2737 28.972 23.1706 26.62 23.789C26.4424 23.8357 26.2645 23.8813 26.0862 23.9256C25.7336 24.0131 25.4845 24.3289 25.4845 24.6883V29.6855C25.4845 29.8077 25.4123 29.9191 25.3 29.9707C25.1878 30.0223 25.0549 30.0049 24.9605 29.9257L19.8008 25.6225C19.3659 25.26 18.8066 25.0748 18.2383 25.106C13.8608 25.3468 9.47215 24.9022 5.23526 23.789C2.88335 23.1706 1.08715 21.2737 0.620387 18.9148C-0.206796 14.7343 -0.206796 10.4346 0.620387 6.25419C1.08728 3.89524 2.88347 1.99825 5.23526 1.3805ZM18.7948 18.877C18.9696 18.877 19.1134 18.735 19.1134 18.5624V12.5845H25.1659C25.3406 12.5845 25.4845 12.4424 25.4845 12.2699V6.60649C25.4845 6.43393 25.3406 6.29193 25.1659 6.29193H6.68979C6.51501 6.29193 6.37123 6.43393 6.37123 6.60649V12.2699C6.37123 12.4424 6.51501 12.5845 6.68979 12.5845H12.7423V18.5624C12.7423 18.735 12.8861 18.877 13.0608 18.877H18.7948Z" fill="#4D77FF"/>
<path d="M25.8709 2.86719H6.03125V22.3969H25.8709V2.86719Z" fill="#4D77FF"/>
<path fill-rule="evenodd" clip-rule="evenodd" d="M23.2892 6.26708C23.2892 5.79813 22.9029 5.41797 22.4265 5.41797H9.48763C9.01121 5.41797 8.625 5.79813 8.625 6.26708V9.23902C8.625 9.70792 9.01121 10.0881 9.48763 10.0881H12.5095C12.9858 10.0881 13.372 10.4683 13.372 10.9372V19.0007C13.372 19.4696 13.7583 19.8498 14.2347 19.8498H17.685C18.1615 19.8498 18.5476 19.4696 18.5476 19.0007V10.9372C18.5476 10.4683 18.9338 10.0881 19.4102 10.0881H22.4265C22.9029 10.0881 23.2892 9.70792 23.2892 9.23902V6.26708Z" fill="white"/>
</g>
<defs>
<clipPath id="clip0_413_15121">
<rect width="32" height="30" fill="white"/>
</clipPath>
</defs>
</svg>
