<svg width="36" height="36" viewBox="0 0 36 36" fill="none" xmlns="http://www.w3.org/2000/svg">
<rect width="36" height="36" rx="8" fill="#F5F5F5"/>
<path d="M21.0271 10.7025V10.6992H21.8711L22.1794 10.7608C22.385 10.8008 22.5717 10.8532 22.7394 10.918C22.9071 10.9829 23.0694 11.0585 23.2263 11.1449C23.3832 11.2314 23.5255 11.3195 23.6532 11.4091C23.7798 11.4978 23.8934 11.5918 23.9941 11.6912C24.0936 11.7917 24.2489 11.8176 24.4599 11.769C24.6709 11.7203 24.8981 11.6528 25.1416 11.5664C25.385 11.4799 25.6258 11.3827 25.8638 11.2746C26.1019 11.1666 26.2469 11.0979 26.2988 11.0688C26.3497 11.0385 26.3768 11.0223 26.38 11.0201L26.3832 11.0153L26.3995 11.0072L26.4157 10.9991L26.4319 10.991L26.4482 10.9829L26.4514 10.978L26.4563 10.9748L26.4612 10.9715L26.4644 10.9667L26.4806 10.9618L26.4968 10.9586L26.4936 10.9829L26.4887 11.0072L26.4806 11.0315L26.4725 11.0558L26.4644 11.072L26.4563 11.0882L26.4482 11.1125C26.4427 11.1287 26.4373 11.1503 26.4319 11.1774C26.4265 11.2044 26.3751 11.3124 26.2777 11.5015C26.1803 11.6906 26.0586 11.8824 25.9125 12.0769C25.7665 12.2714 25.6355 12.4184 25.5198 12.5178C25.4029 12.6183 25.3255 12.6885 25.2876 12.7285C25.2498 12.7696 25.2038 12.8074 25.1497 12.842L25.0685 12.8955L25.0523 12.9036L25.0361 12.9117L25.0328 12.9165L25.028 12.9198L25.0231 12.923L25.0198 12.9279L25.0036 12.936L24.9874 12.9441L24.9841 12.9489L24.9793 12.9522L24.9744 12.9554L24.9711 12.9603L24.9679 12.9652L24.963 12.9684L24.9582 12.9716L24.9549 12.9765H25.0361L25.4905 12.8792C25.7935 12.8144 26.083 12.7361 26.3589 12.6442L26.7971 12.4984L26.8458 12.4821L26.8702 12.474L26.8864 12.4659L26.9026 12.4578L26.9188 12.4497L26.9351 12.4416L26.9675 12.4368L27 12.4335V12.4659L26.9919 12.4692L26.9838 12.474L26.9805 12.4789L26.9757 12.4821L26.9708 12.4854L26.9675 12.4902L26.9643 12.4951L26.9594 12.4984L26.9546 12.5016L26.9513 12.5065L26.9481 12.5113L26.9432 12.5146L26.9351 12.5308L26.927 12.547L26.9221 12.5502C26.9199 12.5535 26.8512 12.6453 26.716 12.8258C26.5807 13.0073 26.5077 13.0991 26.4968 13.1013C26.486 13.1045 26.4709 13.1208 26.4514 13.1499C26.433 13.1802 26.3183 13.3007 26.1073 13.5114C25.8963 13.7221 25.6897 13.9096 25.4873 14.0738C25.2839 14.2391 25.1811 14.4423 25.1789 14.6832C25.1757 14.9231 25.1632 15.1944 25.1416 15.4969C25.1199 15.7995 25.0794 16.1263 25.0198 16.4775C24.9603 16.8287 24.8684 17.2258 24.7439 17.6688C24.6195 18.1119 24.468 18.5441 24.2894 18.9655C24.1109 19.3869 23.9243 19.7651 23.7295 20.1001C23.5347 20.4351 23.3562 20.7187 23.1939 20.951C23.0316 21.1834 22.8666 21.4022 22.6988 21.6075C22.5311 21.8128 22.319 22.044 22.0626 22.3012C21.8051 22.5573 21.6644 22.6978 21.6406 22.7226C21.6157 22.7464 21.5097 22.835 21.3225 22.9884C21.1363 23.1429 20.9362 23.2975 20.7219 23.452C20.5088 23.6054 20.3129 23.7335 20.1344 23.8361C19.9558 23.9388 19.7405 24.056 19.4884 24.1879C19.2373 24.3208 18.9657 24.4439 18.6736 24.5574C18.3814 24.6709 18.073 24.7762 17.7484 24.8735C17.4238 24.9707 17.11 25.0464 16.807 25.1004C16.5041 25.1544 16.1605 25.2003 15.7764 25.2382L15.2002 25.2949V25.303H14.1452V25.2949L14.0072 25.2868C13.9152 25.2814 13.8395 25.276 13.78 25.2706C13.7205 25.2652 13.4959 25.2355 13.1064 25.1814C12.7169 25.1274 12.4112 25.0734 12.1894 25.0193C11.9675 24.9653 11.6375 24.8627 11.1993 24.7114C10.761 24.5601 10.3861 24.4072 10.0745 24.2527C9.76394 24.0992 9.56917 24.002 9.49017 23.9609C9.41226 23.921 9.32462 23.8713 9.22723 23.8118L9.08115 23.7227L9.07792 23.7178L9.07304 23.7146L9.06817 23.7113L9.06492 23.7065L9.04869 23.6984L9.03246 23.6903L9.02923 23.6854L9.02435 23.6822L9.01948 23.6789L9.01623 23.674L9.013 23.6692L9.00812 23.6659H9V23.6335L9.01623 23.6368L9.03246 23.6416L9.1055 23.6497C9.15419 23.6551 9.28675 23.6632 9.50316 23.674C9.71958 23.6849 9.9495 23.6849 10.193 23.674C10.4364 23.6632 10.6853 23.6389 10.9396 23.6011C11.1939 23.5633 11.4941 23.4985 11.8404 23.4066C12.1867 23.3148 12.5048 23.2056 12.7948 23.0792C13.0837 22.9517 13.2893 22.8566 13.4116 22.7939C13.5327 22.7323 13.7178 22.6178 13.9666 22.4503L14.3399 22.1991L14.3432 22.1942L14.3481 22.191L14.3529 22.1877L14.3562 22.1829L14.3594 22.178L14.3643 22.1748L14.3692 22.1715L14.3724 22.1667L14.3886 22.1618L14.4049 22.1586L14.4081 22.1424L14.413 22.1261L14.4179 22.1229L14.4211 22.118L14.2913 22.1099C14.2047 22.1045 14.1208 22.0991 14.0397 22.0937C13.9585 22.0883 13.8314 22.064 13.6583 22.0208C13.4851 21.9776 13.2985 21.9127 13.0983 21.8263C12.8981 21.7399 12.7033 21.6372 12.514 21.5183C12.3246 21.3995 12.1877 21.3006 12.1033 21.2217C12.02 21.1439 11.9118 21.0337 11.7787 20.8911C11.6467 20.7474 11.532 20.5998 11.4346 20.4486C11.3372 20.2973 11.2442 20.1228 11.1555 19.925L11.0207 19.6301L11.0126 19.6057L11.0045 19.5814L10.9996 19.5652L10.9964 19.549L11.0207 19.5523L11.0451 19.5571L11.2236 19.5814C11.3427 19.5976 11.5293 19.603 11.7836 19.5976C12.0379 19.5922 12.2137 19.5814 12.3111 19.5652C12.4085 19.549 12.468 19.5382 12.4896 19.5328L12.5221 19.5247L12.5627 19.5166L12.6032 19.5085L12.6065 19.5036L12.6114 19.5004L12.6162 19.4971L12.6195 19.4923L12.587 19.4842L12.5546 19.4761L12.5221 19.468L12.4896 19.4599L12.4572 19.4518C12.4355 19.4464 12.3977 19.4356 12.3436 19.4193C12.2895 19.4031 12.1434 19.3437 11.9053 19.241C11.6673 19.1384 11.4779 19.0384 11.3372 18.9412C11.1962 18.8437 11.0618 18.737 10.9347 18.6219C10.8081 18.5052 10.6691 18.355 10.5176 18.1713C10.3661 17.9876 10.2308 17.7742 10.1118 17.5311C9.99279 17.2879 9.90352 17.0556 9.844 16.8341C9.78472 16.6139 9.74561 16.3887 9.72716 16.1615L9.69793 15.8211L9.71416 15.8243L9.73039 15.8292L9.74662 15.8373L9.76285 15.8454L9.77908 15.8535L9.79531 15.8616L10.0469 15.9751C10.2146 16.0507 10.4229 16.1155 10.6718 16.1696C10.9207 16.2236 11.0694 16.2533 11.1181 16.2587L11.1912 16.2668H11.3372L11.334 16.2619L11.3291 16.2587L11.3243 16.2555L11.321 16.2506L11.3178 16.2457L11.3129 16.2425L11.308 16.2393L11.3048 16.2344L11.2885 16.2263L11.2723 16.2182L11.2691 16.2133L11.2642 16.2101L11.2593 16.2068L11.2561 16.202L11.2399 16.1939L11.2236 16.1858L11.2204 16.1809C11.2171 16.1787 11.1706 16.1442 11.0808 16.0772C10.9921 16.0091 10.899 15.921 10.8016 15.813C10.7042 15.7049 10.6069 15.5915 10.5095 15.4726C10.4119 15.3535 10.325 15.226 10.2498 15.0917C10.174 14.9566 10.094 14.7848 10.0096 14.5763C9.92625 14.3688 9.86294 14.1597 9.81966 13.949C9.77639 13.7383 9.75204 13.5303 9.74662 13.325C9.74121 13.1197 9.74662 12.9441 9.76285 12.7982C9.77908 12.6523 9.81154 12.4875 9.86023 12.3039C9.90893 12.1202 9.97927 11.9257 10.0712 11.7203L10.2092 11.4124L10.2173 11.3881L10.2254 11.3638L10.2303 11.3605L10.2335 11.3557L10.2368 11.3508L10.2417 11.3476L10.2465 11.3508L10.2498 11.3557L10.253 11.3605L10.2579 11.3638L10.2628 11.367L10.266 11.3719L10.2693 11.3767L10.2741 11.38L10.2822 11.3962L10.2904 11.4124L10.2952 11.4156L10.2985 11.4205L10.5176 11.6636C10.6637 11.8257 10.8368 12.0067 11.037 12.2066C11.2372 12.4065 11.3481 12.5102 11.3697 12.5178C11.3914 12.5264 11.4184 12.5513 11.4509 12.5924C11.4833 12.6323 11.5915 12.728 11.7755 12.8792C11.9594 13.0305 12.2002 13.2061 12.4977 13.406C12.7953 13.6059 13.1253 13.8031 13.4878 13.9976C13.8503 14.1921 14.2399 14.3677 14.6564 14.5244C15.073 14.6811 15.3652 14.7837 15.5329 14.8324C15.7006 14.881 15.9874 14.9431 16.3931 15.0188C16.7989 15.0944 17.1046 15.143 17.3102 15.1646C17.5158 15.1862 17.6565 15.1987 17.7322 15.2019L17.8458 15.2052L17.8426 15.1808L17.8377 15.1565L17.8052 14.9539C17.7836 14.8189 17.7728 14.6298 17.7728 14.3866C17.7728 14.1435 17.7917 13.9193 17.8296 13.714C17.8675 13.5087 17.9243 13.3007 18 13.09C18.0757 12.8792 18.1499 12.7101 18.2224 12.5826C18.296 12.4562 18.3923 12.312 18.5113 12.1499C18.6303 11.9878 18.7845 11.8203 18.9739 11.6474C19.1632 11.4745 19.3796 11.3205 19.6231 11.1855C19.8665 11.0504 20.0911 10.9477 20.2967 10.8775C20.5023 10.8073 20.6754 10.7613 20.8161 10.7397C20.9567 10.7181 21.0271 10.7057 21.0271 10.7025Z" fill="#4D77FF"/>
</svg>
