<svg width="32" height="32" viewBox="0 0 32 32" fill="none" xmlns="http://www.w3.org/2000/svg">
<path d="M20.9167 0H11.1C2.1333 0 0 2.1333 0 11.0833V20.9C0 29.8666 2.1167 32 11.0833 32H20.9C29.8667 32 32 29.8833 32 20.9166V11.1C32 2.1333 29.8833 0 20.9167 0ZM25.8333 22.8333H23.5C22.6167 22.8333 22.35 22.1166 20.7667 20.5333C19.3833 19.2 18.8 19.0333 18.45 19.0333C17.9667 19.0333 17.8333 19.1666 17.8333 19.8333V21.9333C17.8333 22.5 17.65 22.8333 16.1667 22.8333C14.7273 22.7366 13.3315 22.2993 12.0942 21.5575C10.8569 20.8157 9.81353 19.7906 9.05 18.5666C7.23737 16.3105 5.97617 13.6625 5.3667 10.8333C5.3667 10.4833 5.5 10.1666 6.1667 10.1666H8.5C9.1 10.1666 9.3167 10.4333 9.55 11.05C10.6833 14.3833 12.6167 17.2833 13.4 17.2833C13.7 17.2833 13.8333 17.15 13.8333 16.4V12.9666C13.7333 11.4 12.9 11.2666 12.9 10.7C12.911 10.5505 12.9798 10.4112 13.0918 10.3116C13.2038 10.212 13.3503 10.16 13.5 10.1666H17.1667C17.6667 10.1666 17.8333 10.4166 17.8333 11.0166V15.65C17.8333 16.15 18.05 16.3166 18.2 16.3166C18.5 16.3166 18.7333 16.15 19.2833 15.6C20.4652 14.1587 21.4309 12.5529 22.15 10.8333C22.2234 10.6264 22.3625 10.4492 22.5461 10.3288C22.7297 10.2084 22.9477 10.1514 23.1667 10.1666H25.5C26.2 10.1666 26.35 10.5166 26.2 11.0166C25.351 12.9179 24.3006 14.7227 23.0667 16.4C22.8167 16.7833 22.7167 16.9833 23.0667 17.4333C23.3 17.7833 24.1167 18.4666 24.6667 19.1166C25.4667 19.9146 26.131 20.8379 26.6333 21.85C26.8333 22.5 26.5 22.8333 25.8333 22.8333Z" fill="#4D77FF"/>
</svg>
