<svg width="40" height="40" viewBox="0 0 40 40" fill="none" xmlns="http://www.w3.org/2000/svg">
<path d="M35 7.5H5C4.33719 7.50076 3.70175 7.76439 3.23307 8.23307C2.76439 8.70175 2.50076 9.33719 2.5 10V13.75C2.50076 14.4128 2.76439 15.0483 3.23307 15.5169C3.70175 15.9856 4.33719 16.2492 5 16.25V30C5.00076 30.6628 5.26439 31.2983 5.73307 31.7669C6.20175 32.2356 6.83719 32.4992 7.5 32.5H32.5C33.1628 32.4992 33.7983 32.2356 34.2669 31.7669C34.7356 31.2983 34.9992 30.6628 35 30V16.25C35.6628 16.2492 36.2983 15.9856 36.7669 15.5169C37.2356 15.0483 37.4992 14.4128 37.5 13.75V10C37.4992 9.33719 37.2356 8.70175 36.7669 8.23307C36.2983 7.76439 35.6628 7.50076 35 7.5Z" fill="#4D77FF"/>
<path d="M16.25 22.5H23.75C24.0815 22.5 24.3995 22.3683 24.6339 22.1339C24.8683 21.8995 25 21.5815 25 21.25C25 20.9185 24.8683 20.6005 24.6339 20.3661C24.3995 20.1317 24.0815 20 23.75 20H16.25C15.9185 20 15.6005 20.1317 15.3661 20.3661C15.1317 20.6005 15 20.9185 15 21.25C15 21.5815 15.1317 21.8995 15.3661 22.1339C15.6005 22.3683 15.9185 22.5 16.25 22.5Z" fill="white"/>
<path d="M5 13.75H35H35.0015L35 10H20H5V13.75Z" fill="white"/>
</svg>
