<svg width="40" height="40" viewBox="0 0 40 40" fill="none" xmlns="http://www.w3.org/2000/svg">
<path d="M35 23.7508V30.0008C34.9992 30.6636 34.7356 31.299 34.2669 31.7677C33.7983 32.2364 33.1628 32.5 32.5 32.5008H21.25V35C21.25 35.3315 21.1183 35.6495 20.8839 35.8839C20.6495 36.1183 20.3315 36.25 20 36.25C19.6685 36.25 19.3505 36.1183 19.1161 35.8839C18.8817 35.6495 18.75 35.3315 18.75 35V32.5008H7.5C6.83719 32.5 6.20175 32.2364 5.73307 31.7677C5.26439 31.299 5.00076 30.6636 5 30.0008V23.7508C5.00076 23.088 5.26439 22.4525 5.73307 21.9838C6.20175 21.5152 6.83719 21.2515 7.5 21.2508H18.75V18.7508H11.25C10.5872 18.75 9.95175 18.4864 9.48307 18.0177C9.01439 17.549 8.75076 16.9136 8.75 16.2508V10.0008C8.75076 9.33795 9.01439 8.70251 9.48307 8.23383C9.95175 7.76516 10.5872 7.50152 11.25 7.50076H18.75V5C18.75 4.66848 18.8817 4.35054 19.1161 4.11612C19.3505 3.8817 19.6685 3.75 20 3.75C20.3315 3.75 20.6495 3.8817 20.8839 4.11612C21.1183 4.35054 21.25 4.66848 21.25 5V7.50076H28.75C29.4128 7.50152 30.0483 7.76516 30.5169 8.23383C30.9856 8.70251 31.2492 9.33795 31.25 10.0008V16.2508C31.2492 16.9136 30.9856 17.549 30.5169 18.0177C30.0483 18.4864 29.4128 18.75 28.75 18.7508H21.25V21.2508H32.5C33.1628 21.2515 33.7983 21.5152 34.2669 21.9838C34.7356 22.4525 34.9992 23.088 35 23.7508Z" fill="#4D77FF"/>
</svg>
