<svg width="40" height="40" viewBox="0 0 40 40" fill="none" xmlns="http://www.w3.org/2000/svg">
<path d="M34.868 10.6909L32.368 5.69092C32.2642 5.4833 32.1046 5.30869 31.9071 5.18666C31.7097 5.06463 31.4821 4.99999 31.25 5H8.75C8.51787 4.99999 8.29032 5.06463 8.09286 5.18666C7.89539 5.30869 7.73581 5.4833 7.63199 5.69092L5.13199 10.6909C5.04518 10.8645 4.99999 11.0559 5 11.25V32.5C5.00076 33.1628 5.26439 33.7983 5.73307 34.2669C6.20175 34.7356 6.83719 34.9992 7.5 35H32.5C33.1628 34.9992 33.7983 34.7356 34.2669 34.2669C34.7356 33.7983 34.9992 33.1628 35 32.5V11.25C35 11.0559 34.9548 10.8645 34.868 10.6909Z" fill="#4D77FF"/>
<path d="M21.3614 29.6339L26.6647 24.3306C26.7807 24.2145 26.8728 24.0767 26.9356 23.925C26.9985 23.7734 27.0308 23.6108 27.0308 23.4467C27.0308 23.2825 26.9985 23.12 26.9357 22.9683C26.8729 22.8166 26.7808 22.6788 26.6647 22.5627C26.5486 22.4467 26.4108 22.3546 26.2592 22.2918C26.1075 22.2289 25.9449 22.1966 25.7808 22.1966C25.6166 22.1966 25.4541 22.2289 25.3024 22.2917C25.1507 22.3546 25.0129 22.4466 24.8969 22.5627L21.7274 25.7322V16.25C21.7274 15.9185 21.5958 15.6005 21.3613 15.3661C21.1269 15.1317 20.809 15 20.4774 15C20.1459 15 19.828 15.1317 19.5936 15.3661C19.3591 15.6005 19.2274 15.9185 19.2274 16.25V25.7322L16.058 22.5627C15.8236 22.3283 15.5057 22.1966 15.1741 22.1966C14.8426 22.1966 14.5246 22.3283 14.2902 22.5627C14.0558 22.7972 13.9241 23.1151 13.9241 23.4467C13.9241 23.7782 14.0558 24.0962 14.2902 24.3306L19.5935 29.6339C19.6025 29.6429 19.6124 29.6507 19.6217 29.6594C19.642 29.6785 19.6622 29.6979 19.6838 29.7156C19.6942 29.7242 19.7054 29.7316 19.7161 29.7398L19.7236 29.7456C19.7428 29.7604 19.762 29.7752 19.7822 29.7887C19.7909 29.7946 19.8003 29.7995 19.8093 29.8051C19.8348 29.8214 19.8605 29.8375 19.8873 29.8518C19.8939 29.8554 19.9009 29.8582 19.9075 29.8616C19.9372 29.8769 19.9672 29.8915 19.9982 29.9044C20.0025 29.9062 20.0071 29.9075 20.0114 29.9093C20.0447 29.9226 20.0785 29.9352 20.1131 29.9457C20.1177 29.9471 20.1224 29.948 20.127 29.9493C20.1614 29.9593 20.196 29.9684 20.2314 29.9755C20.2416 29.9776 20.2522 29.9784 20.2625 29.9802L20.2654 29.9808C20.2943 29.9858 20.3231 29.9908 20.3526 29.9937C20.4356 30.0021 20.5193 30.0021 20.6023 29.9937C20.6318 29.9908 20.6608 29.9858 20.6897 29.9807L20.6924 29.9802C20.7027 29.9784 20.7133 29.9776 20.7235 29.9755C20.7589 29.9684 20.7935 29.9593 20.8279 29.9493C20.8324 29.948 20.8372 29.9471 20.8418 29.9457C20.8763 29.9352 20.9099 29.9228 20.9431 29.9094C20.9476 29.9076 20.9523 29.9063 20.9567 29.9044C20.9877 29.8915 21.0177 29.8769 21.0473 29.8616C21.054 29.8582 21.0609 29.8554 21.0676 29.8518C21.0944 29.8375 21.1201 29.8214 21.1456 29.8051C21.1546 29.7995 21.1639 29.7946 21.1727 29.7887C21.1929 29.7752 21.2121 29.7604 21.2313 29.7456L21.2388 29.7398C21.2495 29.7316 21.2607 29.7242 21.2711 29.7156C21.2923 29.6982 21.3122 29.6794 21.332 29.6606L21.3349 29.6579C21.3435 29.6497 21.3529 29.6424 21.3614 29.6339Z" fill="white"/>
<path d="M10 7.5L8.75 10H32.2049L30.9549 7.5H10Z" fill="white"/>
</svg>
